<svg width="45" height="45" viewBox="0 0 45 45" fill="none" xmlns="http://www.w3.org/2000/svg">
<path d="M41.25 41.25L37.5 37.5M21.5625 39.375C23.9017 39.375 26.2179 38.9143 28.379 38.0191C30.5402 37.1239 32.5038 35.8119 34.1578 34.1578C35.8119 32.5038 37.1239 30.5402 38.0191 28.379C38.9143 26.2179 39.375 23.9017 39.375 21.5625C39.375 19.2233 38.9143 16.9071 38.0191 14.746C37.1239 12.5848 35.8119 10.6212 34.1578 8.96716C32.5038 7.31312 30.5402 6.00106 28.379 5.1059C26.2179 4.21073 23.9017 3.75 21.5625 3.75C16.8383 3.75 12.3077 5.62667 8.96716 8.96716C5.62667 12.3077 3.75 16.8383 3.75 21.5625C3.75 26.2867 5.62667 30.8173 8.96716 34.1578C12.3077 37.4983 16.8383 39.375 21.5625 39.375Z" stroke="#03291F" stroke-width="3" stroke-linecap="round" stroke-linejoin="round"/>
</svg>
