<svg width="26" height="27" viewBox="0 0 26 27" fill="none" xmlns="http://www.w3.org/2000/svg">
<path d="M9.04092 3.53795C9.18238 3.02029 9.81062 2.8207 10.2249 3.16181L12.2894 4.86164C12.5598 5.08426 12.9492 5.08681 13.2224 4.86775L15.309 3.19511C15.7277 2.85946 16.3533 3.06726 16.488 3.58673L17.159 6.1754C17.2469 6.51441 17.5605 6.74537 17.9103 6.72877L20.5815 6.60203C21.1176 6.5766 21.5015 7.11241 21.3051 7.61183L20.3265 10.1006C20.1983 10.4265 20.3162 10.7976 20.609 10.9898L22.8445 12.4574C23.2932 12.7519 23.2888 13.4111 22.8364 13.6997L20.5818 15.1378C20.2865 15.3262 20.1638 15.6957 20.2877 16.0233L21.2337 18.5247C21.4235 19.0266 21.0326 19.5573 20.4969 19.5249L17.8275 19.3632C17.478 19.342 17.1614 19.5688 17.0691 19.9067L16.3642 22.4863C16.2227 23.004 15.5945 23.2036 15.1802 22.8625L13.1157 21.1626C12.8453 20.94 12.4559 20.9375 12.1827 21.1565L10.0961 22.8292C9.67738 23.1648 9.05181 22.957 8.91714 22.4375L8.24607 19.8489C8.15819 19.5099 7.84464 19.2789 7.49481 19.2955L4.82358 19.4222C4.28754 19.4477 3.90359 18.9119 4.09998 18.4124L5.07865 15.9237C5.20682 15.5978 5.08891 15.2266 4.79614 15.0345L2.56057 13.5669C2.11195 13.2724 2.11627 12.6132 2.5687 12.3246L4.8233 10.8864C5.11857 10.6981 5.24133 10.3285 5.11744 10.0009L4.17145 7.49962C3.98161 6.99767 4.37256 6.46693 4.90821 6.49938L7.57756 6.6611C7.92714 6.68228 8.24368 6.45545 8.336 6.11761L9.04092 3.53795Z" fill="#03291F"/>
<path d="M14.85 9.29248C14.0958 9.29248 13.4208 9.65915 13 10.2216C12.785 9.93365 12.5059 9.69973 12.1848 9.53844C11.8637 9.37715 11.5093 9.29293 11.15 9.29248C9.87081 9.29248 8.83331 10.3341 8.83331 11.6216C8.83331 12.1175 8.91248 12.5758 9.04998 13.0008C9.70831 15.0841 11.7375 16.33 12.7416 16.6716C12.8833 16.7216 13.1166 16.7216 13.2583 16.6716C14.2625 16.33 16.2916 15.0841 16.95 13.0008C17.0875 12.5758 17.1666 12.1175 17.1666 11.6216C17.1666 10.3341 16.1291 9.29248 14.85 9.29248Z" fill="#EDF1F0"/>
</svg>
