<svg width="181" height="26" viewBox="0 0 181 26" fill="none" xmlns="http://www.w3.org/2000/svg">
<path d="M7.92 25.3C6.52 25.3 5.14 25.15 3.78 24.85C2.42 24.55 1.32 24.16 0.48 23.68L2.34 19.21C3.1 19.67 4 20.03 5.04 20.29C6.08 20.55 7.09 20.68 8.07 20.68C8.85 20.68 9.39 20.62 9.69 20.5C10.01 20.36 10.17 20.16 10.17 19.9C10.17 19.64 9.97 19.46 9.57 19.36C9.19 19.26 8.56 19.16 7.68 19.06C6.34 18.9 5.2 18.7 4.26 18.46C3.32 18.2 2.49 17.71 1.77 16.99C1.07 16.27 0.72 15.24 0.72 13.9C0.72 12.84 1.04 11.89 1.68 11.05C2.32 10.21 3.27 9.54 4.53 9.04C5.81 8.54 7.34 8.29 9.12 8.29C10.36 8.29 11.57 8.41 12.75 8.65C13.95 8.87 14.97 9.2 15.81 9.64L13.95 14.11C12.51 13.31 10.93 12.91 9.21 12.91C7.73 12.91 6.99 13.17 6.99 13.69C6.99 13.95 7.19 14.14 7.59 14.26C7.99 14.36 8.62 14.46 9.48 14.56C10.82 14.72 11.95 14.93 12.87 15.19C13.81 15.45 14.63 15.94 15.33 16.66C16.05 17.38 16.41 18.41 16.41 19.75C16.41 20.77 16.09 21.7 15.45 22.54C14.81 23.38 13.85 24.05 12.57 24.55C11.29 25.05 9.74 25.3 7.92 25.3ZM56.3953 8.29C57.8353 8.29 59.1553 8.64 60.3553 9.34C61.5753 10.02 62.5353 11.01 63.2353 12.31C63.9553 13.59 64.3153 15.08 64.3153 16.78C64.3153 18.48 63.9553 19.98 63.2353 21.28C62.5353 22.58 61.5753 23.58 60.3553 24.28C59.1553 24.96 57.8353 25.3 56.3953 25.3C54.3753 25.3 52.8753 24.75 51.8953 23.65V25H45.4453V2.74H52.2253V9.7C53.1853 8.76 54.5753 8.29 56.3953 8.29ZM54.7753 20.02C55.5553 20.02 56.1953 19.74 56.6953 19.18C57.1953 18.6 57.4453 17.8 57.4453 16.78C57.4453 15.76 57.1953 14.97 56.6953 14.41C56.1953 13.85 55.5553 13.57 54.7753 13.57C53.9953 13.57 53.3553 13.85 52.8553 14.41C52.3553 14.97 52.1053 15.76 52.1053 16.78C52.1053 17.8 52.3553 18.6 52.8553 19.18C53.3553 19.74 53.9953 20.02 54.7753 20.02ZM77.4012 8.29C78.8412 8.29 80.1612 8.64 81.3612 9.34C82.5812 10.02 83.5412 11.01 84.2412 12.31C84.9612 13.59 85.3212 15.08 85.3212 16.78C85.3212 18.48 84.9612 19.98 84.2412 21.28C83.5412 22.58 82.5812 23.58 81.3612 24.28C80.1612 24.96 78.8412 25.3 77.4012 25.3C75.3812 25.3 73.8812 24.75 72.9012 23.65V25H66.4512V2.74H73.2312V9.7C74.1912 8.76 75.5812 8.29 77.4012 8.29ZM75.7812 20.02C76.5612 20.02 77.2012 19.74 77.7012 19.18C78.2012 18.6 78.4512 17.8 78.4512 16.78C78.4512 15.76 78.2012 14.97 77.7012 14.41C77.2012 13.85 76.5612 13.57 75.7812 13.57C75.0012 13.57 74.3612 13.85 73.8612 14.41C73.3612 14.97 73.1112 15.76 73.1112 16.78C73.1112 17.8 73.3612 18.6 73.8612 19.18C74.3612 19.74 75.0012 20.02 75.7812 20.02ZM105.457 8.59V25H99.007V23.65C98.027 24.75 96.527 25.3 94.507 25.3C93.067 25.3 91.737 24.96 90.517 24.28C89.317 23.58 88.357 22.58 87.637 21.28C86.937 19.98 86.587 18.48 86.587 16.78C86.587 15.08 86.937 13.59 87.637 12.31C88.357 11.01 89.317 10.02 90.517 9.34C91.737 8.64 93.067 8.29 94.507 8.29C96.327 8.29 97.717 8.76 98.677 9.7V8.59H105.457ZM96.127 20.02C96.907 20.02 97.547 19.74 98.047 19.18C98.547 18.6 98.797 17.8 98.797 16.78C98.797 15.76 98.547 14.97 98.047 14.41C97.547 13.85 96.907 13.57 96.127 13.57C95.347 13.57 94.707 13.85 94.207 14.41C93.707 14.97 93.457 15.76 93.457 16.78C93.457 17.8 93.707 18.6 94.207 19.18C94.707 19.74 95.347 20.02 96.127 20.02ZM119.743 24.43C118.723 25.01 117.333 25.3 115.573 25.3C113.273 25.3 111.503 24.75 110.263 23.65C109.023 22.53 108.403 20.86 108.403 18.64V4.9H115.183V9.49H118.543V14.44H115.183V18.58C115.183 19.08 115.313 19.47 115.573 19.75C115.833 20.03 116.173 20.17 116.593 20.17C117.173 20.17 117.683 20.02 118.123 19.72L119.743 24.43ZM121.441 8.59H128.221V25H121.441V8.59ZM124.831 7.27C123.611 7.27 122.621 6.95 121.861 6.31C121.121 5.65 120.751 4.82 120.751 3.82C120.751 2.82 121.121 2 121.861 1.36C122.621 0.699999 123.611 0.369999 124.831 0.369999C126.071 0.369999 127.061 0.679999 127.801 1.3C128.541 1.92 128.911 2.72 128.911 3.7C128.911 4.74 128.541 5.6 127.801 6.28C127.061 6.94 126.071 7.27 124.831 7.27ZM140.047 25.3C138.187 25.3 136.517 24.94 135.037 24.22C133.577 23.5 132.427 22.49 131.587 21.19C130.767 19.89 130.357 18.42 130.357 16.78C130.357 15.14 130.767 13.68 131.587 12.4C132.427 11.1 133.577 10.09 135.037 9.37C136.517 8.65 138.187 8.29 140.047 8.29C142.047 8.29 143.757 8.72 145.177 9.58C146.597 10.44 147.577 11.63 148.117 13.15L142.867 15.73C142.227 14.29 141.277 13.57 140.017 13.57C139.217 13.57 138.547 13.85 138.007 14.41C137.487 14.97 137.227 15.76 137.227 16.78C137.227 17.82 137.487 18.62 138.007 19.18C138.547 19.74 139.217 20.02 140.017 20.02C141.277 20.02 142.227 19.3 142.867 17.86L148.117 20.44C147.577 21.96 146.597 23.15 145.177 24.01C143.757 24.87 142.047 25.3 140.047 25.3ZM167.537 8.59V25H161.087V23.65C160.107 24.75 158.607 25.3 156.587 25.3C155.147 25.3 153.817 24.96 152.597 24.28C151.397 23.58 150.437 22.58 149.717 21.28C149.017 19.98 148.667 18.48 148.667 16.78C148.667 15.08 149.017 13.59 149.717 12.31C150.437 11.01 151.397 10.02 152.597 9.34C153.817 8.64 155.147 8.29 156.587 8.29C158.407 8.29 159.797 8.76 160.757 9.7V8.59H167.537ZM158.207 20.02C158.987 20.02 159.627 19.74 160.127 19.18C160.627 18.6 160.877 17.8 160.877 16.78C160.877 15.76 160.627 14.97 160.127 14.41C159.627 13.85 158.987 13.57 158.207 13.57C157.427 13.57 156.787 13.85 156.287 14.41C155.787 14.97 155.537 15.76 155.537 16.78C155.537 17.8 155.787 18.6 156.287 19.18C156.787 19.74 157.427 20.02 158.207 20.02ZM177.413 25.3C175.253 25.3 173.563 24.76 172.343 23.68C171.143 22.58 170.543 21 170.543 18.94V2.74H177.323V18.58C177.323 19.1 177.453 19.5 177.713 19.78C177.973 20.04 178.343 20.17 178.823 20.17C179.043 20.17 179.263 20.14 179.483 20.08C179.723 20.02 179.913 19.95 180.053 19.87L180.323 24.88C179.363 25.16 178.393 25.3 177.413 25.3Z" fill="#03291F"/>
</svg>
