<svg width="28" height="27" viewBox="0 0 28 27" fill="none" xmlns="http://www.w3.org/2000/svg">
<path d="M9.41079 1.46753C9.58825 0.810859 10.3811 0.558971 10.905 0.992825L13.5158 3.15485C13.8577 3.43799 14.3495 3.44211 14.694 3.16471L17.3251 1.04658C17.8531 0.621534 18.6435 0.88668 18.8147 1.54627L19.668 4.83322C19.7797 5.26368 20.1762 5.55751 20.6179 5.53723L23.9907 5.38242C24.6675 5.35136 25.1536 6.03226 24.9067 6.66565L23.6765 9.82202C23.5154 10.2354 23.6651 10.7067 24.0353 10.9513L26.8616 12.8189C27.4287 13.1937 27.4248 14.0303 26.8541 14.3955L24.0104 16.2157C23.6379 16.4541 23.4838 16.9228 23.6409 17.3389L24.8412 20.5156C25.082 21.153 24.5895 21.8258 23.9131 21.7834L20.542 21.5721C20.1005 21.5444 19.7013 21.8316 19.5855 22.2601L18.7011 25.5325C18.5237 26.1892 17.7308 26.4411 17.2069 26.0072L14.5961 23.8452C14.2542 23.5621 13.7625 23.558 13.4179 23.8353L10.7868 25.9535C10.2589 26.3785 9.46845 26.1134 9.29723 25.4538L8.44397 22.1668C8.33223 21.7364 7.93578 21.4426 7.49407 21.4628L4.12124 21.6176C3.44441 21.6487 2.95835 20.9678 3.20522 20.3344L4.43542 17.178C4.59652 16.7647 4.44679 16.2934 4.07666 16.0488L1.25036 14.1811C0.683202 13.8064 0.687164 12.9698 1.25782 12.6045L4.10158 10.7844C4.474 10.546 4.62818 10.0772 4.471 9.66121L3.27079 6.48449C3.02994 5.84702 3.52241 5.17431 4.19888 5.21671L7.56999 5.42798C8.01147 5.45565 8.41067 5.16849 8.52648 4.73993L9.41079 1.46753Z" fill="#03291F"/>
</svg>
