<svg width="106" height="101" viewBox="0 0 106 101" fill="none" xmlns="http://www.w3.org/2000/svg">
<path d="M34.6918 3.00935C35.3991 0.421044 38.5403 -0.576898 40.6117 1.12863L50.9342 9.6278C52.286 10.7409 54.2331 10.7536 55.5994 9.65835L66.0323 1.29511C68.1259 -0.383141 71.2537 0.655862 71.9271 3.25321L75.2824 16.1966C75.7219 17.8916 77.2896 19.0464 79.0387 18.9634L92.3949 18.3297C95.0751 18.2026 96.9949 20.8816 96.0129 23.3787L91.1195 35.8223C90.4787 37.452 91.0683 39.3077 92.5321 40.2687L103.71 47.6066C105.953 49.0791 105.931 52.3749 103.669 53.8179L92.3963 61.0087C90.9199 61.9505 90.3061 63.7983 90.9256 65.4362L95.6556 77.9428C96.6047 80.4525 94.65 83.1062 91.9717 82.944L78.625 82.1354C76.8771 82.0295 75.2944 83.1637 74.8328 84.8528L71.3082 97.7511C70.6009 100.339 67.4597 101.337 65.3883 99.6319L55.0658 91.1327C53.714 90.0196 51.7669 90.0069 50.4006 91.1022L39.9677 99.4654C37.8741 101.144 34.7463 100.105 34.073 97.5073L30.7176 84.5639C30.2782 82.8689 28.7105 81.7141 26.9613 81.7971L13.6051 82.4308C10.925 82.5579 9.00517 79.8789 9.98712 77.3818L14.8805 64.9382C15.5213 63.3085 14.9318 61.4528 13.4679 60.4918L2.29007 53.1539C0.0470056 51.6814 0.0685933 48.3856 2.33075 46.9426L13.6037 39.7518C15.0801 38.81 15.6939 36.9622 15.0744 35.3243L10.3445 22.8177C9.39531 20.3079 11.35 17.6542 14.0283 17.8165L27.375 18.6251C29.1229 18.731 30.7057 17.5968 31.1672 15.9076L34.6918 3.00935Z" fill="#FDD835"/>
</svg>
