<svg width="50" height="50" viewBox="0 0 50 50" fill="none" xmlns="http://www.w3.org/2000/svg">
<circle cx="25" cy="25" r="25" fill="#073F2E"/>
<mask id="mask0_25_953" style="mask-type:alpha" maskUnits="userSpaceOnUse" x="0" y="0" width="50" height="50">
<circle cx="25" cy="25" r="25" fill="#D9D9D9"/>
</mask>
<g mask="url(#mask0_25_953)">
<path d="M25 29.1667C27.7627 29.1667 30.4122 28.0692 32.3657 26.1157C34.3192 24.1622 35.4167 21.5127 35.4167 18.75C35.4167 15.9874 34.3192 13.3378 32.3657 11.3843C30.4122 9.43084 27.7627 8.33337 25 8.33337C22.2373 8.33337 19.5878 9.43084 17.6343 11.3843C15.6808 13.3378 14.5833 15.9874 14.5833 18.75C14.5833 21.5127 15.6808 24.1622 17.6343 26.1157C19.5878 28.0692 22.2373 29.1667 25 29.1667ZM25 34.375C14.5625 34.375 6.0625 41.375 6.0625 50C6.0625 50.5834 6.52083 51.0417 7.10417 51.0417H42.8958C43.4792 51.0417 43.9375 50.5834 43.9375 50C43.9375 41.375 35.4375 34.375 25 34.375Z" fill="white"/>
</g>
</svg>
